<svg width="1024" height="871" viewBox="0 0 1024 871" fill="none" xmlns="http://www.w3.org/2000/svg">
<path d="M928 486.2C919.513 486.2 911.374 482.829 905.373 476.827C899.371 470.826 896 462.687 896 454.2V294.2C896 285.713 899.371 277.574 905.373 271.573C911.374 265.571 919.513 262.2 928 262.2C936.487 262.2 944.626 265.571 950.627 271.573C956.629 277.574 960 285.713 960 294.2V454.2C960 462.687 956.629 470.826 950.627 476.827C944.626 482.829 936.487 486.2 928 486.2Z" fill="#2F6BFE"/>
<path d="M515.584 447.8C494.784 447.8 476.736 444.984 458.688 438.84L49.28 282.872C6.336 265.336 0 238.328 0 223.8C0 209.208 6.336 182.2 48.576 164.984L453.952 9.20802C485.184 -2.88798 538.688 -2.95198 570.112 9.20802L974.784 164.728C1017.66 182.136 1024 209.208 1024 223.8C1024 238.392 1017.66 265.336 975.36 282.616L570.048 438.392C556.736 444.472 538.368 447.8 515.584 447.8ZM73.92 223.8L480.384 378.552C490.816 382.136 501.632 383.8 515.584 383.8C532.096 383.8 540.928 381.368 545.344 379.384L950.016 223.8L547.072 68.984C530.304 62.456 493.568 62.52 476.992 68.984L73.92 223.8Z" fill="#2F6BFE"/>
<path d="M515.584 569.16C494.848 569.16 476.8 566.28 458.688 560.136L180.16 454.152L202.88 394.312L480.32 499.976C490.816 503.496 501.632 505.224 515.52 505.224C531.968 505.224 540.8 502.792 545.28 500.744L820.416 394.952L843.392 454.728L570.048 559.752C556.672 565.896 538.304 569.16 515.584 569.16Z" fill="white"/>
<path d="M515.456 870.2C350.656 870.2 169.152 819.832 160.128 709.176L160 422.2C160 413.713 163.371 405.574 169.373 399.573C175.374 393.571 183.513 390.2 192 390.2C200.487 390.2 208.626 393.571 214.627 399.573C220.629 405.574 224 413.713 224 422.2V703.224C228.416 759.352 361.92 806.2 515.456 806.2C636.224 806.2 747.776 777.848 786.752 737.272C796.096 727.608 800.384 717.944 799.936 707.896V424.504C799.936 416.017 803.307 407.878 809.309 401.877C815.31 395.875 823.449 392.504 831.936 392.504C840.423 392.504 848.562 395.875 854.563 401.877C860.565 407.878 863.936 416.017 863.936 424.504V703.224C865.088 732.856 854.336 759.224 832.96 781.56C770.176 846.904 627.84 870.2 515.456 870.2Z" fill="#2F6BFE"/>
<path d="M896 550.2C896 558.687 899.371 566.826 905.373 572.827C911.374 578.829 919.513 582.2 928 582.2C936.487 582.2 944.626 578.829 950.627 572.827C956.629 566.826 960 558.687 960 550.2C960 541.713 956.629 533.574 950.627 527.573C944.626 521.571 936.487 518.2 928 518.2C919.513 518.2 911.374 521.571 905.373 527.573C899.371 533.574 896 541.713 896 550.2Z" fill="#2F6BFE"/>
</svg>
